<svg width="512" height="512" viewBox="0 0 512 512" xmlns="http://www.w3.org/2000/svg" role="img" aria-label="Broadside">
  <title>Broadside</title>
  <rect width="512" height="512" rx="112" fill="#fd923e"/>
  <g fill="#0a0a0a">
    <path d="M112 96h112c40 0 70 11 89 33 14 16 21 35 21 56 0 36-19 60-56 73 22 5 40 16 53 33 13 17 19 36 19 58 0 27-9 49-26 65-22 22-56 34-100 34H112V96zm67 60v74h45c20 0 35-3 45-10 11-7 17-19 17-36 0-15-5-26-15-33s-25-11-44-11h-48zm0 134v76h54c22 0 38-3 49-10 12-7 18-19 18-36 0-15-6-26-17-33-12-7-29-11-50-11h-54z"/>
    <rect x="370" y="220" width="16" height="72" rx="8"/>
    <rect x="402" y="188" width="16" height="136" rx="8"/>
    <rect x="434" y="232" width="16" height="48" rx="8"/>
  </g>
</svg>
