<svg width="1200" height="630" viewBox="0 0 1200 630" xmlns="http://www.w3.org/2000/svg">
  <defs>
    <radialGradient id="glow" cx="0.18" cy="0.22" r="0.55">
      <stop offset="0%" stop-color="#fd923e" stop-opacity="0.22"/>
      <stop offset="55%" stop-color="#fd923e" stop-opacity="0.05"/>
      <stop offset="100%" stop-color="#fd923e" stop-opacity="0"/>
    </radialGradient>
    <linearGradient id="hairline" x1="0" y1="0" x2="1" y2="0">
      <stop offset="0%" stop-color="#fd923e" stop-opacity="0.9"/>
      <stop offset="100%" stop-color="#fd923e" stop-opacity="0"/>
    </linearGradient>
  </defs>

  <rect width="1200" height="630" fill="#020202"/>
  <rect width="1200" height="630" fill="url(#glow)"/>

  <!-- Logo mark, scaled from 512x512 master, placed at left -->
  <g transform="translate(96, 187)">
    <g transform="scale(0.5)">
      <rect width="512" height="512" rx="112" fill="#fd923e"/>
      <g fill="none" stroke="#0a0a0a" stroke-width="46" stroke-linecap="round" stroke-linejoin="round">
        <circle cx="174" cy="256" r="72"/>
        <path d="M282 168l68 176 80-176"/>
      </g>
    </g>
  </g>

  <!-- Wordmark + tagline -->
  <g font-family="Helvetica Neue, Helvetica, Arial, sans-serif">
    <text x="408" y="298" font-size="118" font-weight="900" letter-spacing="0" fill="#f8f8f8">OnVibe</text>
    <text x="412" y="360" font-size="40" font-weight="500" letter-spacing="0" fill="#fd923e">Your music, anywhere.</text>

    <line x1="412" y1="395" x2="540" y2="395" stroke="url(#hairline)" stroke-width="3" stroke-linecap="round"/>

    <text x="412" y="438" font-size="22" font-weight="400" letter-spacing="3" fill="#a4a4a4">SELF-HOSTED &#160;&#160;·&#160;&#160; PRIVATE &#160;&#160;·&#160;&#160; EVERYWHERE</text>
  </g>

  <!-- Decorative EQ bars in bottom-right echoing the mark -->
  <g fill="#fd923e" opacity="0.55" transform="translate(1040, 510)">
    <rect x="0"   y="34" width="10" height="40" rx="5"/>
    <rect x="20"  y="20" width="10" height="68" rx="5"/>
    <rect x="40"  y="6"  width="10" height="96" rx="5"/>
    <rect x="60"  y="24" width="10" height="60" rx="5"/>
    <rect x="80"  y="38" width="10" height="32" rx="5"/>
  </g>
</svg>
