<svg width="1200" height="630" viewBox="0 0 1200 630" xmlns="http://www.w3.org/2000/svg">
  <defs>
    <radialGradient id="glow" cx="0.18" cy="0.22" r="0.55">
      <stop offset="0%" stop-color="#fd923e" stop-opacity="0.22"/>
      <stop offset="55%" stop-color="#fd923e" stop-opacity="0.05"/>
      <stop offset="100%" stop-color="#fd923e" stop-opacity="0"/>
    </radialGradient>
    <linearGradient id="hairline" x1="0" y1="0" x2="1" y2="0">
      <stop offset="0%" stop-color="#fd923e" stop-opacity="0.9"/>
      <stop offset="100%" stop-color="#fd923e" stop-opacity="0"/>
    </linearGradient>
  </defs>

  <rect width="1200" height="630" fill="#020202"/>
  <rect width="1200" height="630" fill="url(#glow)"/>

  <!-- Logo mark, scaled from 512x512 master, placed at left -->
  <g transform="translate(96, 187)">
    <g transform="scale(0.5)">
      <rect width="512" height="512" rx="112" fill="#fd923e"/>
      <g fill="#0a0a0a">
        <path d="M112 96h112c40 0 70 11 89 33 14 16 21 35 21 56 0 36-19 60-56 73 22 5 40 16 53 33 13 17 19 36 19 58 0 27-9 49-26 65-22 22-56 34-100 34H112V96zm67 60v74h45c20 0 35-3 45-10 11-7 17-19 17-36 0-15-5-26-15-33s-25-11-44-11h-48zm0 134v76h54c22 0 38-3 49-10 12-7 18-19 18-36 0-15-6-26-17-33-12-7-29-11-50-11h-54z"/>
        <rect x="370" y="220" width="16" height="72" rx="8"/>
        <rect x="402" y="188" width="16" height="136" rx="8"/>
        <rect x="434" y="232" width="16" height="48" rx="8"/>
      </g>
    </g>
  </g>

  <!-- Wordmark + tagline -->
  <g font-family="Helvetica Neue, Helvetica, Arial, sans-serif">
    <text x="408" y="298" font-size="118" font-weight="900" letter-spacing="-3" fill="#f8f8f8">Broadside</text>
    <text x="412" y="360" font-size="40" font-weight="500" letter-spacing="-0.5" fill="#fd923e">Your music, anywhere.</text>

    <line x1="412" y1="395" x2="540" y2="395" stroke="url(#hairline)" stroke-width="3" stroke-linecap="round"/>

    <text x="412" y="438" font-size="22" font-weight="400" letter-spacing="3" fill="#a4a4a4">SELF-HOSTED &#160;&#160;·&#160;&#160; PRIVATE &#160;&#160;·&#160;&#160; EVERYWHERE</text>
  </g>

  <!-- Decorative EQ bars in bottom-right echoing the mark -->
  <g fill="#fd923e" opacity="0.55" transform="translate(1040, 510)">
    <rect x="0"   y="34" width="10" height="40" rx="5"/>
    <rect x="20"  y="20" width="10" height="68" rx="5"/>
    <rect x="40"  y="6"  width="10" height="96" rx="5"/>
    <rect x="60"  y="24" width="10" height="60" rx="5"/>
    <rect x="80"  y="38" width="10" height="32" rx="5"/>
  </g>
</svg>
